<svg width="200" height="54" viewBox="0 0 200 54" fill="none" xmlns="http://www.w3.org/2000/svg">
<g clip-path="url(#clip0_181_4233)">
<path d="M76.9097 32.8759V15.1171H85.4897C87.2977 15.1171 88.7257 15.5405 89.7697 16.3892C90.8137 17.236 91.3357 18.4367 91.3357 19.9851C91.3357 20.7882 91.1557 21.5098 90.7957 22.1439C90.4357 22.78 89.8797 23.3027 89.1297 23.7122V23.7997C89.8357 23.7997 90.3797 23.9865 90.7617 24.3582C91.1437 24.73 91.3357 25.2607 91.3357 25.9485V32.8759H88.8217V25.5966H79.4477V32.8759H76.9117H76.9097ZM79.4457 23.5154H85.2477C86.3797 23.5154 87.2617 23.2411 87.8957 22.6925C88.5277 22.1439 88.8437 21.3746 88.8437 20.3787C88.8437 19.3828 88.5277 18.5957 87.8957 18.055C87.2637 17.5143 86.3817 17.244 85.2477 17.244H79.4457V23.5134V23.5154Z" fill="black"/>
<path d="M97.8197 33.1164C96.3197 33.1164 95.1397 32.7467 94.2797 32.0092C93.4197 31.2717 92.9897 30.3037 92.9897 29.1051C92.9897 27.9064 93.4157 26.8728 94.2697 26.179C95.1217 25.4853 96.3497 25.1375 97.9537 25.1375H102.476V24.5451C102.476 22.5136 101.352 21.4978 99.1017 21.4978C97.2637 21.4978 96.1537 22.1856 95.7717 23.5592H93.2797C93.4997 22.2591 94.1297 21.2494 95.1657 20.5338C96.2017 19.8182 97.5297 19.4604 99.1477 19.4604C100.986 19.4604 102.394 19.8917 103.372 20.7544C104.35 21.6171 104.838 22.8595 104.838 24.4815V30.3355H106.03V32.8779H103.382V30.8603H102.456C102 31.562 101.376 32.1146 100.58 32.5161C99.7857 32.9176 98.8657 33.1184 97.8217 33.1184L97.8197 33.1164ZM98.1517 31.1445C98.9457 31.1445 99.6737 30.9835 100.336 30.6615C100.998 30.3395 101.52 29.9022 101.902 29.3456C102.284 28.791 102.476 28.1827 102.476 27.5268V26.9344H98.1077C96.2557 26.9344 95.3277 27.6222 95.3277 28.9957C95.3277 29.6537 95.5777 30.1765 96.0777 30.5641C96.5777 30.9517 97.2697 31.1445 98.1517 31.1445Z" fill="black"/>
<path d="M109.248 17.9238C108.836 17.9238 108.484 17.7787 108.19 17.4845C107.896 17.1923 107.748 16.8425 107.748 16.433C107.748 16.0235 107.894 15.6736 108.19 15.3814C108.484 15.0892 108.836 14.9421 109.248 14.9421C109.66 14.9421 110.012 15.0872 110.306 15.3814C110.6 15.6736 110.748 16.0255 110.748 16.433C110.748 16.8405 110.6 17.1923 110.306 17.4845C110.012 17.7767 109.658 17.9238 109.248 17.9238ZM108.012 32.8759V19.7208H110.482V32.8759H108.012Z" fill="black"/>
<path d="M113.702 32.8759V22.2651H112.422V19.7227H115.07V21.7403H115.996C116.452 21.0088 117.076 20.4503 117.872 20.0627C118.666 19.675 119.6 19.4822 120.674 19.4822C122.38 19.4822 123.726 19.9692 124.71 20.9393C125.696 21.9113 126.188 23.2093 126.188 24.8313V32.8779H123.718V25.2488C123.718 24.0641 123.398 23.1656 122.758 22.5514C122.118 21.9371 121.18 21.631 119.946 21.631C118.712 21.631 117.792 21.9371 117.144 22.5514C116.496 23.1656 116.174 24.0641 116.174 25.2488V32.8779H113.704L113.702 32.8759Z" fill="black"/>
<path d="M134.636 33.1383C133.254 33.1383 132.056 32.856 131.04 32.2935C130.026 31.7309 129.242 30.9318 128.69 29.8922C128.138 28.8546 127.862 27.6421 127.862 26.2526C127.862 24.8632 128.138 23.6625 128.69 22.6468C129.242 21.631 130.018 20.8458 131.018 20.2893C132.018 19.7347 133.186 19.4564 134.526 19.4564C135.866 19.4564 136.912 19.7128 137.846 20.2237C138.78 20.7345 139.504 21.4581 140.018 22.3943C140.532 23.3306 140.79 24.4417 140.79 25.7258V26.7118H130.246C130.32 28.0853 130.742 29.1568 131.514 29.924C132.286 30.6913 133.32 31.075 134.614 31.075C135.51 31.075 136.268 30.8881 136.886 30.5164C137.504 30.1447 137.93 29.5921 138.166 28.8606H140.68C140.356 30.2202 139.662 31.2717 138.596 32.0172C137.53 32.7626 136.21 33.1363 134.636 33.1363V33.1383ZM130.336 24.9168H138.41C138.292 23.8355 137.892 22.9946 137.208 22.3963C136.524 21.798 135.624 21.4978 134.506 21.4978C133.388 21.4978 132.484 21.798 131.748 22.3963C131.012 22.9966 130.542 23.8355 130.336 24.9168Z" fill="black"/>
<path d="M74.8579 53.7356L82.5119 35.9768H85.3139L92.9459 53.7356H90.4099L88.1159 48.4303H79.6239L77.3519 53.7356H74.8599H74.8579ZM80.4379 46.2815H87.3419L83.9679 38.3443H83.8579L80.4379 46.2815Z" fill="black"/>
<path d="M94.6218 53.7356V43.1249H93.3418V40.5825H95.9898V43.0374H96.9158C97.2838 42.2343 97.8538 41.6042 98.6258 41.151C99.3978 40.6978 100.306 40.4712 101.35 40.4712H102.43V42.5762H101.216C99.8918 42.5762 98.8698 42.9639 98.1498 43.7391C97.4298 44.5143 97.0698 45.5579 97.0698 46.8738V53.7356H94.6218Z" fill="black"/>
<path d="M108.938 54C107.6 54 106.43 53.7177 105.43 53.1552C104.43 52.5927 103.654 51.7995 103.102 50.7758C102.55 49.7521 102.274 48.5475 102.274 47.1581C102.274 45.7686 102.546 44.564 103.09 43.5403C103.634 42.5166 104.406 41.7235 105.406 41.1609C106.406 40.5984 107.582 40.3161 108.936 40.3161C110.554 40.3161 111.902 40.7137 112.984 41.5108C114.064 42.3079 114.774 43.4509 115.112 44.9417H112.62C112.37 44.0949 111.94 43.4687 111.33 43.0672C110.72 42.6657 109.922 42.4649 108.936 42.4649C107.628 42.4649 106.602 42.8744 105.858 43.6934C105.116 44.5123 104.744 45.6672 104.744 47.1581C104.744 48.6489 105.116 49.7859 105.858 50.6108C106.6 51.4358 107.626 51.8492 108.936 51.8492C110.98 51.8492 112.238 50.9507 112.708 49.1518H115.2C114.876 50.7162 114.17 51.9148 113.082 52.7477C111.994 53.5806 110.612 53.998 108.936 53.998L108.938 54Z" fill="black"/>
<path d="M116.306 53.7356V35.3189H118.776V42.6856H118.864C119.29 41.9262 119.886 41.3458 120.65 40.9423C121.414 40.5408 122.318 40.34 123.364 40.34C125.026 40.34 126.346 40.827 127.324 41.797C128.302 42.7691 128.79 44.0671 128.79 45.6891V53.7356H126.32V46.1065C126.32 44.9218 126 44.0233 125.36 43.4091C124.72 42.7949 123.782 42.4888 122.548 42.4888C121.314 42.4888 120.394 42.7949 119.746 43.4091C119.098 44.0233 118.776 44.9218 118.776 46.1065V53.7356H116.306Z" fill="black"/>
<path d="M132.586 38.7836C132.174 38.7836 131.822 38.6385 131.528 38.3443C131.234 38.0521 131.086 37.7022 131.086 37.2927C131.086 36.8832 131.232 36.5334 131.528 36.2412C131.822 35.949 132.174 35.8019 132.586 35.8019C132.998 35.8019 133.35 35.947 133.644 36.2412C133.938 36.5334 134.086 36.8852 134.086 37.2927C134.086 37.7002 133.938 38.0521 133.644 38.3443C133.35 38.6365 132.996 38.7836 132.586 38.7836ZM131.35 53.7356V40.5805H133.82V53.7356H131.35Z" fill="black"/>
<path d="M139.776 53.7356C139.07 53.7356 138.522 53.5567 138.132 53.1989C137.742 52.8411 137.548 52.3044 137.548 51.5868V42.4669H135.078V40.5805H137.57V36.6348H139.996V40.5805H143.46V42.4669H140.018V51.8055H143.812V53.7356H139.776Z" fill="black"/>
<path d="M151.092 54C149.71 54 148.512 53.7177 147.496 53.1552C146.482 52.5927 145.698 51.7936 145.146 50.754C144.594 49.7163 144.318 48.5038 144.318 47.1143C144.318 45.7249 144.594 44.5243 145.146 43.5085C145.698 42.4928 146.474 41.7076 147.474 41.151C148.474 40.5964 149.642 40.3181 150.982 40.3181C152.322 40.3181 153.368 40.5746 154.302 41.0854C155.236 41.5963 155.96 42.3198 156.474 43.2561C156.988 44.1923 157.246 45.3035 157.246 46.5876V47.5735H146.702C146.776 48.9471 147.198 50.0185 147.97 50.7858C148.742 51.5531 149.776 51.9367 151.07 51.9367C151.966 51.9367 152.724 51.7498 153.342 51.3781C153.96 51.0064 154.386 50.4538 154.622 49.7223H157.136C156.812 51.082 156.118 52.1335 155.052 52.8789C153.986 53.6243 152.666 53.998 151.092 53.998V54ZM146.79 45.7786H154.864C154.746 44.6972 154.346 43.8564 153.662 43.2581C152.978 42.6597 152.078 42.3596 150.96 42.3596C149.842 42.3596 148.938 42.6597 148.202 43.2581C147.466 43.8584 146.996 44.6972 146.79 45.7786Z" fill="black"/>
<path d="M164.922 54C163.584 54 162.414 53.7177 161.414 53.1552C160.414 52.5927 159.638 51.7995 159.086 50.7758C158.534 49.7521 158.258 48.5475 158.258 47.1581C158.258 45.7686 158.53 44.564 159.074 43.5403C159.618 42.5166 160.39 41.7235 161.39 41.1609C162.39 40.5984 163.566 40.3161 164.92 40.3161C166.538 40.3161 167.886 40.7137 168.968 41.5108C170.048 42.3079 170.758 43.4509 171.096 44.9417H168.604C168.354 44.0949 167.924 43.4687 167.314 43.0672C166.704 42.6657 165.906 42.4649 164.92 42.4649C163.612 42.4649 162.586 42.8744 161.842 43.6934C161.1 44.5123 160.728 45.6672 160.728 47.1581C160.728 48.6489 161.1 49.7859 161.842 50.6108C162.584 51.4358 163.61 51.8492 164.92 51.8492C166.964 51.8492 168.222 50.9507 168.692 49.1518H171.184C170.86 50.7162 170.154 51.9148 169.066 52.7477C167.978 53.5806 166.596 53.998 164.92 53.998L164.922 54Z" fill="black"/>
<path d="M175.6 53.7356C174.894 53.7356 174.346 53.5567 173.956 53.1989C173.566 52.8411 173.372 52.3044 173.372 51.5868V42.4669H170.902V40.5805H173.394V36.6348H175.82V40.5805H179.284V42.4669H175.842V51.8055H179.636V53.7356H175.6Z" fill="black"/>
<path d="M186.032 54C184.194 54 182.746 53.6203 181.686 52.859C180.628 52.0997 180.046 51.0402 179.944 49.6806H182.392C182.494 50.4836 182.848 51.076 183.45 51.4556C184.052 51.8353 184.942 52.0261 186.12 52.0261C188.178 52.0261 189.208 51.3841 189.208 50.098C189.208 49.5712 189.05 49.1657 188.734 48.8815C188.418 48.5972 187.884 48.3885 187.134 48.2573L184.244 47.7306C181.788 47.2773 180.56 46.1165 180.56 44.244C180.56 43.0314 181.024 42.0733 181.95 41.3717C182.876 40.67 184.142 40.3201 185.744 40.3201C187.346 40.3201 188.726 40.6779 189.704 41.3935C190.682 42.1091 191.238 43.1189 191.37 44.4189H188.966C188.818 43.6874 188.476 43.1467 187.94 42.7969C187.404 42.447 186.65 42.2701 185.68 42.2701C184.782 42.2701 184.088 42.4232 183.596 42.7313C183.104 43.0374 182.856 43.4847 182.856 44.0691C182.856 44.5223 183.014 44.8761 183.33 45.1325C183.646 45.389 184.158 45.5818 184.864 45.713L187.754 46.2616C189.048 46.4961 189.996 46.9116 190.6 47.5119C191.202 48.1122 191.504 48.9153 191.504 49.9231C191.504 51.2092 191.034 52.211 190.092 52.9266C189.15 53.6422 187.798 54 186.034 54H186.032Z" fill="black"/>
<path d="M196.988 46.6254C196.572 46.6254 196.184 46.5478 195.822 46.3948C195.46 46.2397 195.14 46.025 194.862 45.7507C194.586 45.4764 194.368 45.1584 194.21 44.8006C194.052 44.4428 193.974 44.0571 193.974 43.6437C193.974 43.2302 194.052 42.8446 194.21 42.4868C194.368 42.129 194.584 41.811 194.862 41.5366C195.138 41.2623 195.458 41.0476 195.822 40.8926C196.184 40.7376 196.574 40.662 196.988 40.662C197.402 40.662 197.792 40.7395 198.154 40.8926C198.516 41.0457 198.836 41.2623 199.114 41.5366C199.39 41.811 199.608 42.129 199.766 42.4868C199.924 42.8446 200.002 43.2302 200.002 43.6437C200.002 44.0571 199.924 44.4428 199.766 44.8006C199.608 45.1584 199.392 45.4764 199.114 45.7507C198.838 46.025 198.518 46.2397 198.154 46.3948C197.792 46.5498 197.402 46.6254 196.988 46.6254ZM196.988 46.0747C197.328 46.0747 197.646 46.0131 197.94 45.8879C198.236 45.7627 198.496 45.5897 198.72 45.3651C198.944 45.1425 199.12 44.8821 199.246 44.5859C199.372 44.2897 199.434 43.9756 199.434 43.6417C199.434 43.3078 199.372 42.9877 199.246 42.6935C199.12 42.3993 198.944 42.1409 198.72 41.9183C198.496 41.6957 198.236 41.5207 197.94 41.3955C197.644 41.2703 197.326 41.2087 196.988 41.2087C196.65 41.2087 196.336 41.2703 196.038 41.3955C195.74 41.5207 195.48 41.6937 195.254 41.9183C195.03 42.1409 194.854 42.3993 194.728 42.6935C194.602 42.9877 194.54 43.3038 194.54 43.6417C194.54 43.9796 194.602 44.2897 194.728 44.5859C194.854 44.8821 195.028 45.1405 195.254 45.3651C195.478 45.5877 195.74 45.7627 196.038 45.8879C196.336 46.0131 196.652 46.0747 196.988 46.0747ZM195.798 45.1425V42.1409H197.244C197.542 42.1409 197.784 42.2184 197.97 42.3715C198.156 42.5266 198.25 42.7452 198.25 43.0275C198.25 43.1905 198.216 43.3296 198.146 43.4469C198.076 43.5642 197.976 43.6516 197.84 43.7093V43.7331C197.97 43.7331 198.07 43.7709 198.142 43.8464C198.214 43.922 198.248 44.0293 198.248 44.1724V45.1405H197.676V44.1088H196.368V45.1405H195.796L195.798 45.1425ZM196.37 43.6238H197.168C197.318 43.6238 197.442 43.5821 197.54 43.4966C197.636 43.4111 197.684 43.2918 197.684 43.1368C197.684 42.9818 197.636 42.8625 197.54 42.777C197.444 42.6915 197.32 42.6498 197.168 42.6498H196.37V43.6258V43.6238Z" fill="black"/>
<path d="M64.9679 16.5721L43.0219 34.1401H41.0439L44.5419 16.5721H64.9679Z" fill="url(#paint0_linear_181_4233)"/>
<path d="M39.7077 54H55.7677C56.7877 54 57.6637 53.2824 57.8597 52.2885L60.9497 36.6686C61.2097 35.3586 60.1997 34.1401 58.8577 34.1401H41.0437L37.6157 51.4696C37.3557 52.7795 38.3657 53.998 39.7077 53.998V54Z" fill="url(#paint1_linear_181_4233)"/>
<path d="M27.874 1.65781C24.544 16.4012 23.79 16.5761 8.73003 16.5443C7.71003 16.5423 6.83003 17.2579 6.63203 18.2538L0.0420266 51.4696C-0.217973 52.7795 0.790027 54 2.13403 54H15.418C16.638 54 17.688 53.1413 17.924 51.9526L23.082 25.9664C24.166 20.5079 28.982 16.5741 34.578 16.5741H64.968L67.78 2.53442C68.042 1.22248 67.032 0 65.688 0H29.958C28.96 0 28.096 0.689759 27.876 1.65781H27.874Z" fill="url(#paint2_linear_181_4233)"/>
</g>
<defs>
<linearGradient id="paint0_linear_181_4233" x1="55.2099" y1="14.9024" x2="49.1338" y2="37.5003" gradientUnits="userSpaceOnUse">
<stop stop-color="#5266BF"/>
<stop offset="0.1" stop-color="#556BC6"/>
<stop offset="0.69" stop-color="#6687EF"/>
<stop offset="1" stop-color="#6D93FF"/>
</linearGradient>
<linearGradient id="paint1_linear_181_4233" x1="51.6777" y1="31.063" x2="47.0825" y2="56.3178" gradientUnits="userSpaceOnUse">
<stop stop-color="#82C5FF"/>
<stop offset="0.18" stop-color="#79B1FF"/>
<stop offset="0.44" stop-color="#709BFF"/>
<stop offset="0.61" stop-color="#6D93FF"/>
<stop offset="0.73" stop-color="#6687EF"/>
<stop offset="0.96" stop-color="#556BC6"/>
<stop offset="1" stop-color="#5266BF"/>
</linearGradient>
<linearGradient id="paint2_linear_181_4233" x1="2.66048e-05" y1="27" x2="67.82" y2="27" gradientUnits="userSpaceOnUse">
<stop stop-color="#5266BF"/>
<stop offset="0.05" stop-color="#556BC6"/>
<stop offset="0.36" stop-color="#6687EF"/>
<stop offset="0.52" stop-color="#6D93FF"/>
<stop offset="1" stop-color="#82C5FF"/>
</linearGradient>
<clipPath id="clip0_181_4233">
<rect width="200" height="54" fill="white"/>
</clipPath>
</defs>
</svg>
